<svg width="26" height="24" viewBox="0 0 26 24" fill="none" xmlns="http://www.w3.org/2000/svg">
<path d="M25.4392 5.33394C25.2088 4.93478 24.8789 4.60214 24.4817 4.36847C24.0844 4.1348 23.6334 4.00807 23.1726 4.00065H6.10647L5.33316 0.987417C5.25503 0.696543 5.08072 0.440693 4.83861 0.261536C4.59651 0.082379 4.30088 -0.0095287 3.99987 0.000781948H1.33329C0.979679 0.000781948 0.640552 0.141253 0.390511 0.391293C0.140471 0.641334 0 0.980461 0 1.33407C0 1.68768 0.140471 2.02681 0.390511 2.27685C0.640552 2.52689 0.979679 2.66736 1.33329 2.66736H2.98657L6.66645 16.3469C6.74458 16.6378 6.91889 16.8936 7.161 17.0728C7.4031 17.252 7.69873 17.3439 7.99974 17.3335H19.9993C20.2456 17.3328 20.4868 17.2639 20.6962 17.1345C20.9057 17.005 21.0752 16.8201 21.186 16.6002L25.5592 7.85386C25.7487 7.45656 25.837 7.01851 25.816 6.57881C25.7951 6.13911 25.6656 5.71143 25.4392 5.33394Z" fill="#3F3F3F"/>
<path d="M7.33313 24.0001C8.43766 24.0001 9.33306 23.1047 9.33306 22.0001C9.33306 20.8956 8.43766 20.0002 7.33313 20.0002C6.22859 20.0002 5.33319 20.8956 5.33319 22.0001C5.33319 23.1047 6.22859 24.0001 7.33313 24.0001Z" fill="#3F3F3F"/>
<path d="M20.666 24.0001C21.7705 24.0001 22.6659 23.1047 22.6659 22.0001C22.6659 20.8956 21.7705 20.0002 20.666 20.0002C19.5615 20.0002 18.6661 20.8956 18.6661 22.0001C18.6661 23.1047 19.5615 24.0001 20.666 24.0001Z" fill="#3F3F3F"/>
</svg>
