<svg width="18" height="18" viewBox="0 0 18 18" fill="none" xmlns="http://www.w3.org/2000/svg">
<path d="M15.1875 3.375H11.8125V2.53125C11.8125 2.15829 11.6643 1.8006 11.4006 1.53688C11.1369 1.27316 10.7792 1.125 10.4062 1.125H7.59375C7.22079 1.125 6.8631 1.27316 6.59938 1.53688C6.33566 1.8006 6.1875 2.15829 6.1875 2.53125V3.375H2.8125C2.66332 3.375 2.52024 3.43426 2.41475 3.53975C2.30926 3.64524 2.25 3.78832 2.25 3.9375C2.25 4.08668 2.30926 4.22976 2.41475 4.33525C2.52024 4.44074 2.66332 4.5 2.8125 4.5H3.41016L4.07812 15.2198C4.12805 16.1638 4.85156 16.875 5.76562 16.875H12.2344C13.153 16.875 13.8621 16.1796 13.9219 15.2227L14.5898 4.5H15.1875C15.3367 4.5 15.4798 4.44074 15.5852 4.33525C15.6907 4.22976 15.75 4.08668 15.75 3.9375C15.75 3.78832 15.6907 3.64524 15.5852 3.53975C15.4798 3.43426 15.3367 3.375 15.1875 3.375ZM6.77004 14.625H6.75C6.60422 14.6251 6.4641 14.5686 6.35917 14.4674C6.25424 14.3662 6.19269 14.2282 6.1875 14.0825L5.90625 6.20754C5.90094 6.05836 5.9551 5.91317 6.05683 5.80392C6.15856 5.69467 6.29953 5.63031 6.44871 5.625C6.59789 5.61969 6.74308 5.67385 6.85233 5.77558C6.96158 5.87731 7.02594 6.01828 7.03125 6.16746L7.3125 14.0425C7.31518 14.1163 7.30327 14.19 7.27745 14.2593C7.25163 14.3286 7.21241 14.3921 7.16203 14.4462C7.11164 14.5003 7.05109 14.5439 6.98383 14.5746C6.91657 14.6053 6.84392 14.6224 6.77004 14.625ZM9.5625 14.0625C9.5625 14.2117 9.50324 14.3548 9.39775 14.4602C9.29226 14.5657 9.14918 14.625 9 14.625C8.85082 14.625 8.70774 14.5657 8.60225 14.4602C8.49676 14.3548 8.4375 14.2117 8.4375 14.0625V6.1875C8.4375 6.03832 8.49676 5.89524 8.60225 5.78975C8.70774 5.68426 8.85082 5.625 9 5.625C9.14918 5.625 9.29226 5.68426 9.39775 5.78975C9.50324 5.89524 9.5625 6.03832 9.5625 6.1875V14.0625ZM10.6875 3.375H7.3125V2.53125C7.31208 2.4942 7.31906 2.45743 7.33305 2.42312C7.34703 2.38881 7.36773 2.35763 7.39393 2.33143C7.42013 2.30523 7.45131 2.28453 7.48562 2.27055C7.51993 2.25656 7.5567 2.24958 7.59375 2.25H10.4062C10.4433 2.24958 10.4801 2.25656 10.5144 2.27055C10.5487 2.28453 10.5799 2.30523 10.6061 2.33143C10.6323 2.35763 10.653 2.38881 10.667 2.42312C10.6809 2.45743 10.6879 2.4942 10.6875 2.53125V3.375ZM11.8125 14.0825C11.8073 14.2282 11.7458 14.3662 11.6408 14.4674C11.5359 14.5686 11.3958 14.6251 11.25 14.625H11.2296C11.1558 14.6224 11.0831 14.6052 11.0159 14.5745C10.9487 14.5438 10.8882 14.5002 10.8378 14.4461C10.7875 14.392 10.7483 14.3285 10.7225 14.2592C10.6967 14.19 10.6848 14.1163 10.6875 14.0425L10.9688 6.16746C10.9714 6.09359 10.9885 6.02097 11.0192 5.95373C11.0499 5.88649 11.0936 5.82595 11.1477 5.77558C11.2018 5.72521 11.2653 5.68599 11.3345 5.66015C11.4038 5.63431 11.4774 5.62237 11.5513 5.625C11.6252 5.62763 11.6978 5.64479 11.765 5.67549C11.8323 5.70619 11.8928 5.74983 11.9432 5.80392C11.9935 5.85802 12.0328 5.9215 12.0586 5.99075C12.0844 6.06001 12.0964 6.13367 12.0938 6.20754L11.8125 14.0825Z" fill="black"/>
</svg>
